<?xml version="1.0" standalone="no"?><!DOCTYPE svg PUBLIC "-//W3C//DTD SVG 1.1//EN" "http://www.w3.org/Graphics/SVG/1.1/DTD/svg11.dtd"><svg t="1535768322013" class="icon" style="" viewBox="0 0 1024 1024" version="1.1" xmlns="http://www.w3.org/2000/svg" p-id="4506" xmlns:xlink="http://www.w3.org/1999/xlink" width="200" height="200"><defs><style type="text/css"></style></defs><path d="M959.9 517.4c0-252.8-200.4-453.2-453.2-453.2C265 64.2 64.6 264.6 64.6 517.4c0 241.7 200.4 442.1 442.1 442.1 252.8 0.1 453.2-200.4 453.2-442.1z" fill="#108EE9" p-id="4507"></path><path d="M278 531.8c-1.8-1.9-2.1-5.2-0.5-7.4l20.1-27.4c1.6-2.2 4.6-2.6 6.7-1l119.9 91.9c2.1 1.6 5.5 1.5 7.5-0.1l291.9-243.2c2-1.7 5.2-1.5 7.1 0.3l19 18.8c1.9 1.9 1.9 4.9 0 6.8L431.5 683.7c-1.9 1.9-5 1.8-6.8-0.1L278 531.8z" fill="#FFFFFF" p-id="4508"></path></svg>